<svg version="1.1" id="Capa_1" xmlns="http://www.w3.org/2000/svg" xmlns:xlink="http://www.w3.org/1999/xlink" x="0px" y="0px"
	 viewBox="0 0 297 297" style="enable-background:new 0 0 297 297;" xml:space="preserve">
<g>
	<path d="M292.297,123.94c-2.954-1.254-6.453-0.625-8.764,1.601L217,189.552v-58.249c0-3.212-1.754-6.112-4.712-7.366
		c-2.957-1.254-6.46-0.615-8.769,1.618L138,188.899v-57.597c0-3.211-1.752-6.11-4.708-7.364c-2.954-1.253-6.291-0.619-8.6,1.61
		l-66.02,63.821L53.422,75.632c-0.197-4.27-3.696-7.63-7.97-7.63h-6.029c10.7-2.098,17.438-7.158,23.093-11.427
		c6.045-4.563,10.038-7.577,19.265-7.577c9.226,0,13.22,3.015,19.265,7.577c7.331,5.535,16.456,12.423,33.724,12.423
		c17.267,0,26.391-6.889,33.722-12.423c6.044-4.563,10.036-7.577,19.26-7.577c9.225,0,13.217,3.015,19.261,7.577
		c7.331,5.535,16.455,12.423,33.722,12.423c6.627,0,12-5.372,12-12s-5.373-12-12-12c-9.225,0-13.217-3.015-19.261-7.577
		c-7.331-5.535-16.455-12.423-33.722-12.423c-17.267,0-26.39,6.888-33.721,12.423c-6.044,4.563-10.036,7.577-19.261,7.577
		c-9.226,0-13.22-3.015-19.265-7.577c-7.331-5.535-16.456-12.423-33.724-12.423c-17.268,0-26.393,6.888-33.724,12.423
		c-6.045,4.563-10.038,7.577-19.265,7.577c-6.627,0-12,5.372-12,12c0,4.928,2.973,9.156,7.219,11.004H16.71
		c-4.275,0-7.794,3.36-7.991,7.63l-8.71,188c-0.102,2.184,0.695,4.314,2.205,5.895c1.51,1.581,3.6,2.476,5.786,2.476h281.333
		c4.418,0,7.667-3.582,7.667-8V131.303C297,128.094,295.249,125.196,292.297,123.94z M275,231.002c0,4.418-3.582,8-8,8h-21
		c-4.418,0-8-3.582-8-8v-19c0-4.418,3.582-8,8-8h21c4.418,0,8,3.582,8,8V231.002z M195,231.002c0,4.418-3.582,8-8,8h-20
		c-4.418,0-8-3.582-8-8v-19c0-4.418,3.582-8,8-8h20c4.418,0,8,3.582,8,8V231.002z M116,231.002c0,4.418-3.582,8-8,8H88
		c-4.418,0-8-3.582-8-8v-19c0-4.418,3.582-8,8-8h20c4.418,0,8,3.582,8,8V231.002z"/>
</g>
</svg>

